<svg width="39" height="35" viewBox="0 0 39 35" fill="none" xmlns="http://www.w3.org/2000/svg">
<g clip-path="url(#clip0_92_93)">
<path d="M1.00009 17.1582V30.9359C1.00009 33.1769 3.18798 35.0001 5.87721 35.0001H33.1808C35.87 35.0001 38.0579 33.177 38.0579 30.9359V17.1582H1.00009ZM8.41357 23.6737C8.41357 21.975 10.072 20.593 12.1104 20.593H26.9476C28.986 20.593 30.6444 21.975 30.6444 23.6737V23.6822C30.6444 25.381 28.986 26.7629 26.9476 26.7629H12.1104C10.072 26.7629 8.41357 25.381 8.41357 23.6822V23.6737Z" fill="black"/>
<path d="M10.8847 15.1069V8.23723H10.3421C7.91607 8.23723 5.94235 6.59246 5.94235 4.57086V2.0769H5.87712C3.18788 2.0769 1 3.90007 1 6.14117V15.1069H10.8847Z" fill="black"/>
<path d="M33.1155 4.57086C33.1155 6.59246 31.1418 8.23723 28.7158 8.23723H28.1732V15.1069H38.0578V6.14117C38.0578 3.90014 35.8699 2.0769 33.1807 2.0769H33.1155L33.1155 4.57086Z" fill="black"/>
<path d="M18.2886 2.0769H20.7692V15.1069H18.2886V2.0769Z" fill="black"/>
<path d="M12.1104 24.7116H26.9476C27.6287 24.7116 28.1828 24.2498 28.1828 23.6822V23.6737C28.1828 23.106 27.6287 22.6443 26.9476 22.6443H12.1104C11.4293 22.6443 10.8752 23.106 10.8752 23.6737V23.6822C10.8752 24.2498 11.4293 24.7116 12.1104 24.7116Z" fill="black"/>
<path d="M15.827 15.1068V1.61509C15.827 0.724535 14.9575 0 13.8888 0H10.342C9.27331 0 8.40387 0.724535 8.40387 1.61509V4.57081C8.40387 5.4613 9.27331 6.18583 10.342 6.18583H12.1154C12.7951 6.18583 13.3462 6.64506 13.3462 7.21151V15.1068H15.827Z" fill="black"/>
<path d="M25.7116 7.21151C25.7116 6.64506 26.2626 6.18583 26.9424 6.18583H28.7158C29.7845 6.18583 30.6539 5.4613 30.6539 4.57081V1.61509C30.6539 0.724535 29.7845 0 28.7158 0H25.1689C24.1003 0 23.2308 0.724535 23.2308 1.61509V15.1068H25.7115V7.21151H25.7116Z" fill="black"/>
</g>
<defs>
<clipPath id="clip0_92_93">
<rect width="39" height="35" fill="white"/>
</clipPath>
</defs>
</svg>
