<svg width="41" height="41" viewBox="0 0 41 41" fill="none" xmlns="http://www.w3.org/2000/svg">
<g clip-path="url(#clip0_92_85)">
<path d="M5.56805 3.10132C4.21386 3.10132 3.11218 4.203 3.11218 5.55719C3.11218 6.91188 4.21386 8.01355 5.56805 8.01355C6.92274 8.01355 8.02442 6.91188 8.02442 5.55719C8.02442 4.203 6.92274 3.10132 5.56805 3.10132ZM5.56805 6.99355C4.77616 6.99355 4.13218 6.34908 4.13218 5.55719C4.13218 4.76529 4.77616 4.12132 5.56805 4.12132C6.35995 4.12132 7.00442 4.76529 7.00442 5.55719C7.00442 6.34908 6.35995 6.99355 5.56805 6.99355Z" fill="black"/>
<path d="M5.56805 9.17749C4.21386 9.17749 3.11218 10.2792 3.11218 11.6334C3.11218 12.988 4.21386 14.0897 5.56805 14.0897C6.92274 14.0897 8.02442 12.988 8.02442 11.6334C8.02442 10.2792 6.92274 9.17749 5.56805 9.17749ZM5.56805 13.0697C4.77616 13.0697 4.13218 12.4253 4.13218 11.6334C4.13218 10.8415 4.77616 10.1975 5.56805 10.1975C6.35995 10.1975 7.00442 10.8415 7.00442 11.6334C7.00442 12.4253 6.35995 13.0697 5.56805 13.0697Z" fill="black"/>
<path d="M10.5953 6.14575C9.24066 6.14575 8.13898 7.24743 8.13898 8.60212C8.13898 9.95631 9.24066 11.058 10.5953 11.058C11.9495 11.058 13.0512 9.95631 13.0512 8.60212C13.0512 7.24743 11.9495 6.14575 10.5953 6.14575ZM10.5953 10.038C9.80345 10.038 9.15898 9.39401 9.15898 8.60212C9.15898 7.81022 9.80345 7.16575 10.5953 7.16575C11.3872 7.16575 12.0312 7.81022 12.0312 8.60212C12.0312 9.39401 11.3872 10.038 10.5953 10.038Z" fill="black"/>
<path d="M38.3789 4.07801H22.4663V2.62072C22.4663 1.23067 21.3352 0.0996094 19.9452 0.0996094H2.62062C1.23057 0.0996094 0.100006 1.23067 0.100006 2.62072V34.4006C0.100006 35.7906 1.23057 36.9217 2.62062 36.9217H18.5332V38.3795C18.5332 39.7695 19.6643 40.9001 21.0543 40.9001H38.3789C39.7689 40.9001 40.8995 39.7695 40.8995 38.3795V6.59912C40.8995 5.20907 39.7689 4.07801 38.3789 4.07801ZM2.62062 35.9017C1.79337 35.9017 1.12001 35.2283 1.12001 34.4006V2.62072C1.12001 1.79297 1.79337 1.11961 2.62062 1.11961H19.9452C20.7729 1.11961 21.4463 1.79297 21.4463 2.62072V4.07801H21.0543C19.6643 4.07801 18.5332 5.20907 18.5332 6.59912V35.9017H2.62062ZM39.8795 38.3795C39.8795 39.2067 39.2061 39.8801 38.3789 39.8801H21.0543C20.2266 39.8801 19.5532 39.2067 19.5532 38.3795V6.59912C19.5532 5.77137 20.2266 5.09801 21.0543 5.09801H38.3789C39.2061 5.09801 39.8795 5.77137 39.8795 6.59912V38.3795Z" fill="black"/>
<path d="M29.7164 32.1404C28.1485 32.1404 26.873 33.4044 26.873 34.9583C26.873 36.5122 28.1485 37.7763 29.7164 37.7763C31.2842 37.7763 32.5597 36.5122 32.5597 34.9583C32.5597 33.4044 31.2842 32.1404 29.7164 32.1404ZM29.7164 36.7563C28.7108 36.7563 27.893 35.9499 27.893 34.9583C27.893 33.9667 28.7108 33.1604 29.7164 33.1604C30.7219 33.1604 31.5397 33.9667 31.5397 34.9583C31.5397 35.9499 30.7219 36.7563 29.7164 36.7563Z" fill="black"/>
<path d="M28.4204 7.55418H31.0123C31.2942 7.55418 31.5223 7.32607 31.5223 7.04418C31.5223 6.76229 31.2942 6.53418 31.0123 6.53418H28.4204C28.1385 6.53418 27.9104 6.76229 27.9104 7.04418C27.9104 7.32607 28.1385 7.55418 28.4204 7.55418Z" fill="black"/>
<path d="M37.4351 17.792L32.7485 16.5788L30.1467 12.4963C29.9584 12.2024 29.4743 12.2024 29.286 12.4963L26.6842 16.5788L21.9976 17.792C21.8293 17.8353 21.6943 17.9623 21.6405 18.1282C21.5867 18.2935 21.6211 18.4753 21.7322 18.6098L24.8101 22.3456L24.5162 27.1782C24.5058 27.352 24.5845 27.5194 24.7254 27.6214C24.8674 27.7245 25.0511 27.748 25.212 27.6837L29.7164 25.9102L34.2212 27.6837C34.2814 27.7076 34.3447 27.7191 34.408 27.7191C34.514 27.7191 34.6191 27.6857 34.7078 27.6214C34.8487 27.5194 34.9274 27.352 34.917 27.1782L34.6226 22.3456L37.7005 18.6098C37.8116 18.4753 37.846 18.2935 37.7922 18.1282C37.7384 17.9623 37.6034 17.8353 37.4351 17.792ZM33.7077 21.8521C33.6255 21.9517 33.5842 22.0787 33.5922 22.2072L33.8501 26.4416L29.9031 24.8877C29.8434 24.8643 29.7796 24.8523 29.7164 24.8523C29.6531 24.8523 29.5893 24.8643 29.5296 24.8877L25.5831 26.4416L25.8405 22.2072C25.8485 22.0787 25.8072 21.9517 25.725 21.8521L23.0281 18.5789L27.1345 17.5156C27.259 17.4832 27.3671 17.405 27.4368 17.2959L29.7164 13.719L31.9959 17.2959C32.0656 17.405 32.1737 17.4832 32.2982 17.5156L36.4046 18.5789L33.7077 21.8521Z" fill="black"/>
</g>
<defs>
<clipPath id="clip0_92_85">
<rect width="41" height="41" fill="white"/>
</clipPath>
</defs>
</svg>
