<svg width="47" height="47" viewBox="0 0 47 47" fill="none" xmlns="http://www.w3.org/2000/svg">
<path d="M44.0162 0H2.93441C1.31242 0 0 1.31242 0 2.93441V27.8769H46.8156C46.8633 27.8769 46.9044 27.8931 46.9506 27.8997V2.93441C46.9506 1.31242 45.6382 0 44.0162 0Z" fill="#231F20"/>
<path d="M0 29.2339V32.1683C0 33.7903 1.31242 35.1027 2.93441 35.1027H20.5409V42.4388H14.6721C13.0515 42.4388 11.7376 43.7527 11.7376 45.3732V46.1068C11.7376 46.5125 12.0656 46.8404 12.4713 46.8404H34.4793C34.885 46.8404 35.2129 46.5125 35.2129 46.1068V45.3732C35.2129 43.7527 33.8991 42.4388 32.2785 42.4388H26.4097V35.1027H44.0162C45.6382 35.1027 46.9506 33.7903 46.9506 32.1683V29.2112C46.9051 29.2178 46.864 29.2339 46.8156 29.2339H0ZM23.4753 33.6355C22.6654 33.6355 22.0081 32.9782 22.0081 32.1683C22.0081 31.3584 22.6654 30.7011 23.4753 30.7011C24.2852 30.7011 24.9425 31.3584 24.9425 32.1683C24.9425 32.9782 24.2852 33.6355 23.4753 33.6355Z" fill="#231F20"/>
</svg>
