<svg width="29" height="43" viewBox="0 0 29 43" fill="none" xmlns="http://www.w3.org/2000/svg">
<g clip-path="url(#clip0_92_79)" filter="url(#filter0_i_92_79)">
<path d="M20.1975 0.671881H8.80249C8.65422 0.671231 8.50991 0.719642 8.39202 0.809572C8.27414 0.899502 8.18932 1.0259 8.15077 1.16907C7.62671 3.10407 6.13515 5.48251 5.06686 7.02782H23.9331C22.8648 5.48923 21.3733 3.10407 20.8492 1.16907C20.8107 1.0259 20.7258 0.899502 20.608 0.809572C20.4901 0.719642 20.3458 0.671231 20.1975 0.671881Z" fill="black"/>
<path d="M5.06686 35.9722C6.13515 37.5108 7.62671 39.8959 8.15077 41.8309C8.18932 41.9741 8.27414 42.1005 8.39202 42.1904C8.50991 42.2803 8.65422 42.3288 8.80249 42.3281H20.1975C20.3458 42.3288 20.4901 42.2803 20.608 42.1904C20.7258 42.1005 20.8107 41.9741 20.8492 41.8309C21.3733 39.8959 22.8648 37.5175 23.9331 35.9722H5.06686Z" fill="black"/>
<path d="M16.8966 21.8857L16.259 20.2268L14.4288 23.4095C14.3732 23.5062 14.2944 23.5876 14.1995 23.6462C14.1046 23.7048 13.9966 23.7389 13.8852 23.7454H13.8463C13.7417 23.745 13.6386 23.7202 13.5453 23.673C13.452 23.6257 13.371 23.5574 13.3088 23.4733L11.6109 21.1849L10.8443 22.0812C10.7812 22.1549 10.7029 22.2141 10.6148 22.2547C10.5266 22.2953 10.4308 22.3163 10.3337 22.3163H8.40878L14.5 28.4129L20.5912 22.3163H17.5234C17.3877 22.3163 17.2551 22.2751 17.1432 22.1982C17.0313 22.1214 16.9453 22.0124 16.8966 21.8857Z" fill="black"/>
<path d="M10.0226 20.9726L11.1366 19.6705C11.2016 19.5922 11.2841 19.5302 11.3775 19.4896C11.4709 19.449 11.5724 19.4309 11.6741 19.4367C11.7747 19.4399 11.8734 19.4658 11.9627 19.5123C12.052 19.5588 12.1297 19.6248 12.1901 19.7054L13.7784 21.848L15.8007 18.3321C15.8641 18.2221 15.9573 18.1323 16.0695 18.0731C16.1818 18.0138 16.3086 17.9876 16.4351 17.9975C16.5617 18.0073 16.6828 18.0528 16.7846 18.1287C16.8864 18.2046 16.9646 18.3077 17.0101 18.4262L17.9897 20.9706H21.4405C21.6076 20.5282 21.6936 20.0594 21.6944 19.5865C21.767 16.1539 17.3575 14.3264 14.9757 16.8036C14.8497 16.9296 14.6788 17.0003 14.5007 17.0003C14.3225 17.0003 14.1516 16.9296 14.0256 16.8036C11.6828 14.3116 7.20477 16.1861 7.30689 19.5865C7.30767 20.0594 7.39371 20.5282 7.56086 20.9706L10.0226 20.9726Z" fill="black"/>
<path d="M0.733276 11.731V31.2691C0.735935 32.1592 1.09072 33.0122 1.72015 33.6416C2.34958 34.271 3.20251 34.6258 4.09265 34.6285H24.9073C25.7975 34.6258 26.6504 34.271 27.2798 33.6416C27.9093 33.0122 28.2641 32.1592 28.2667 31.2691V11.731C28.2641 10.8408 27.9093 9.98789 27.2798 9.35846C26.6504 8.72903 25.7975 8.37424 24.9073 8.37158H4.09265C3.20251 8.37424 2.34958 8.72903 1.72015 9.35846C1.09072 9.98789 0.735935 10.8408 0.733276 11.731ZM5.09374 20.9726H6.14993C6.02657 20.5215 5.96331 20.0562 5.96181 19.5885C5.88857 15.2415 11.1635 12.722 14.5 15.4343C17.8385 12.7213 23.1114 15.2422 23.0382 19.5885C23.0367 20.0562 22.9734 20.5215 22.8501 20.9726H23.9062C24.0844 20.9726 24.2553 21.0434 24.3813 21.1694C24.5073 21.2954 24.5781 21.4663 24.5781 21.6445C24.5781 21.8227 24.5073 21.9936 24.3813 22.1196C24.2553 22.2456 24.0844 22.3163 23.9062 22.3163H22.2736C22.0544 22.6825 21.7918 23.0209 21.4915 23.3242L14.9743 29.8413C14.8483 29.9673 14.6775 30.0381 14.4993 30.0381C14.3212 30.0381 14.1503 29.9673 14.0243 29.8413L7.50712 23.3242C7.20681 23.0209 6.94423 22.6825 6.72506 22.3163H5.09374C4.91555 22.3163 4.74466 22.2456 4.61866 22.1196C4.49266 21.9936 4.42187 21.8227 4.42187 21.6445C4.42187 21.4663 4.49266 21.2954 4.61866 21.1694C4.74466 21.0434 4.91555 20.9726 5.09374 20.9726Z" fill="black"/>
</g>
<defs>
<filter id="filter0_i_92_79" x="0" y="0" width="29" height="47" filterUnits="userSpaceOnUse" color-interpolation-filters="sRGB">
<feFlood flood-opacity="0" result="BackgroundImageFix"/>
<feBlend mode="normal" in="SourceGraphic" in2="BackgroundImageFix" result="shape"/>
<feColorMatrix in="SourceAlpha" type="matrix" values="0 0 0 0 0 0 0 0 0 0 0 0 0 0 0 0 0 0 127 0" result="hardAlpha"/>
<feOffset dy="4"/>
<feGaussianBlur stdDeviation="2"/>
<feComposite in2="hardAlpha" operator="arithmetic" k2="-1" k3="1"/>
<feColorMatrix type="matrix" values="0 0 0 0 0 0 0 0 0 0 0 0 0 0 0 0 0 0 0.25 0"/>
<feBlend mode="normal" in2="shape" result="effect1_innerShadow_92_79"/>
</filter>
<clipPath id="clip0_92_79">
<rect width="29" height="43" fill="white"/>
</clipPath>
</defs>
</svg>
